#!OML:ASF F:\VICON\USERDATA\INSTALL\rory3\rory3.ASF
:FULLY-SPECIFIED
:DEGREES
17
root 1.93415 15.141 -22.4949 19.2975 3.99208 1.78683
lowerback -5.23051 -7.18191 -4.45108
upperback -5.91489 -9.43535 3.21652
thorax -1.98542 -4.55982 5.37418
lowerneck -17.0793 2.10456 -1.19056
upperneck 14.4307 3.04361 0.627597
head 7.20119 1.44876 0.734045
rclavicle -1.86423e-013 4.77083e-015
rhumerus -63.053 22.4473 -91.5013
rradius 83.8312
rwrist 11.4054
rhand -23.3415 -53.9962
rfingers 7.12502
rthumb 3.11335 -83.9532
lclavicle -1.86423e-013 4.77083e-015
lhumerus -18.9296 -32.5239 89.8654
lradius 86.5516
lwrist 4.84561
lhand -33.2556 -41.1001
lfingers 7.12502
lthumb -6.46099 -11.2186
rfemur -80.4425 -1.35959 20.1536
rtibia 49.7735
rfoot 7.90223 1.4985
rtoes -13.1361
lfemur 5.16832 -4.94494 -28.7866
ltibia 32.6301
lfoot -20.6971 -1.7569
ltoes -26.1572
18
root 1.93231 15.1673 -21.9676 19.1841 3.73043 1.54017
lowerback -5.22503 -7.17177 -4.81057
upperback -5.85246 -9.40774 3.80631
thorax -1.77612 -4.53797 6.17039
lowerneck -18.3757 2.31669 -1.01276
upperneck 15.0013 3.44033 -0.0845864
head 7.62384 1.56977 0.540456
rclavicle 7.12643e-014 -4.92986e-014
rhumerus -62.9964 24.1831 -91.2188
rradius 84.6747
rwrist 11.4496
rhand -23.3869 -53.0512
rfingers 7.12502
rthumb 3.06949 -83.0089
lclavicle 7.12643e-014 -4.92986e-014
lhumerus -16.1918 -33.614 89.8766
lradius 87.7137
lwrist 5.32985
lhand -33.3233 -39.3396
lfingers 7.12502
lthumb -6.52635 -9.4602
rfemur -79.8859 -1.42953 21.6797
rtibia 48.9168
rfoot 9.18941 1.65292
rtoes -16.5274
lfemur 6.17767 -4.41211 -28.4953
ltibia 33.0856
lfoot -14.169 -3.38512
ltoes -24.2052
19
root 1.92614 15.1692 -21.4458 19.093 3.59114 1.50005
lowerback -5.25725 -7.39242 -5.34223
upperback -6.18331 -9.68603 4.42476
thorax -1.88231 -4.64658 7.10015
lowerneck -17.7631 2.65468 -1.01056
upperneck 14.8874 4.02144 -0.784667
head 7.49495 1.78175 0.367226
rclavicle 8.33902e-014 -7.15625e-015
rhumerus -63.424 26.3595 -91.5107
rradius 85.4311
rwrist 10.9094
rhand -23.7667 -53.0367
rfingers 7.12502
rthumb 2.70267 -82.9993
lclavicle 8.33902e-014 -7.15625e-015
lhumerus -14.473 -33.9674 90.194
lradius 88.5549
lwrist 4.96646
lhand -32.5482 -39.3682
lfingers 7.12502
lthumb -5.77802 -9.46697
rfemur -79.6516 -1.37343 22.6043
rtibia 49.0467
rfoot 10.0606 0.715372
rtoes -15.7512
lfemur 6.30715 -3.29486 -28.0653
ltibia 34.8136
lfoot -8.68414 -4.56899
ltoes -23.7647
20
root 1.91964 15.1549 -20.9288 18.9333 3.45472 1.65225
lowerback -5.11227 -7.74996 -5.93851
upperback -6.54735 -10.1567 5.0376
thorax -2.06937 -4.8447 8.07578
lowerneck -17.2197 3.13579 -1.10399
upperneck 14.853 4.82055 -1.48234
head 7.40706 2.0939 0.235725
rclavicle -1.75328e-013 2.3059e-014
rhumerus -63.342 28.9766 -92.0731
rradius 85.711
rwrist 10.3058
rhand -25.3919 -50.3922
rfingers 7.12502
rthumb 1.13302 -80.369
lclavicle -1.75328e-013 2.3059e-014
lhumerus -12.7675 -34.0631 90.2978
lradius 89.3576
lwrist 4.07204
lhand -32.2594 -38.0494
lfingers 7.12502
lthumb -5.49914 -8.14071
rfemur -79.3714 -1.31323 23.1286
rtibia 49.9212
rfoot 10.5838 -1.19324
rtoes -9.6362
lfemur 5.77229 -1.80268 -27.6554
ltibia 37.846
lfoot -3.05186 -5.13583
ltoes -19.9978
21
root 1.9068 15.1027 -20.4217 18.6893 3.32603 1.9543
lowerback -4.90191 -7.90186 -6.49096
upperback -6.49902 -10.3594 5.30054
thorax -1.96225 -4.9347 8.6592
lowerneck -18.0134 3.36547 -0.848128
upperneck 14.9344 5.22269 -2.21908
head 7.60045 2.2184 0.0144518
rclavicle 1.87852e-014 1.11319e-014
rhumerus -61.9263 30.8809 -92.4414
rradius 86.0957
rwrist 9.27692
rhand -26.024 -48.6906
rfingers 7.12502
rthumb 0.522597 -78.6697
lclavicle 1.87852e-014 1.11319e-014
lhumerus -10.0254 -34.8992 89.4672
lradius 90.0278
lwrist 3.78298
lhand -31.5041 -37.4286
lfingers 7.12502
lthumb -4.76988 -7.50232
rfemur -78.9932 -1.23353 23.4085
rtibia 51.5129
rfoot 10.8445 -0.903421
rtoes -9.5114
lfemur 5.00517 -0.29102 -27.3088
ltibia 41.8513
lfoot -0.559141 -5.50979
ltoes -24.8963
